<?xml version="1.0" standalone="no"?><!DOCTYPE svg PUBLIC "-//W3C//DTD SVG 1.1//EN" "http://www.w3.org/Graphics/SVG/1.1/DTD/svg11.dtd"><svg class="icon" height="512" viewBox="0 0 1024 1024" version="1.1" xmlns="http://www.w3.org/2000/svg"><path d="M449.024 297.984c0-8.704-7.168-15.872-15.872-15.872-8.704 0-15.872 7.168-15.872 15.872 0 34.816-28.16 62.976-62.976 62.976-34.816 0-62.976-28.16-62.976-62.976 0-8.704-7.168-15.872-15.872-15.872-8.704 0-15.872 7.168-15.872 15.872 0 52.224 42.496 94.72 94.72 94.72 52.224-0.512 94.72-42.496 94.72-94.72zM748.544 282.112c-8.704 0-15.872 7.168-15.872 15.872 0 34.816-28.16 62.976-62.976 62.976-34.816 0-62.976-28.16-62.976-62.976 0-8.704-7.168-15.872-15.872-15.872-8.704 0-15.872 7.168-15.872 15.872 0 52.224 42.496 94.72 94.72 94.72s94.72-42.496 94.72-94.72c-0.512-8.704-7.168-15.872-15.872-15.872zM625.152 599.552c-32.768-21.504-70.656-34.304-113.152-34.304s-80.384 12.8-113.152 34.304c-19.456 12.8-33.28 25.6-40.448 34.816-5.632 6.656-4.608 16.896 2.048 22.016 6.656 5.632 16.896 4.608 22.016-2.048 1.024-1.536 4.096-4.608 8.192-8.192 7.168-6.656 15.872-13.312 25.6-19.968 27.648-17.92 59.904-29.184 96.256-29.184 36.352 0 68.096 10.752 96.256 29.184 9.728 6.144 18.432 13.312 25.6 19.968l8.192 8.192c5.632 6.656 15.36 7.68 22.016 2.048 6.656-5.632 7.68-15.36 2.048-22.016-8.192-8.704-21.504-22.016-41.472-34.816zM948.736 77.312H75.264c-34.816 0-63.488 28.16-63.488 63.488v601.088c0 34.816 28.16 63.488 63.488 63.488H122.88c3.072 8.704 8.192 17.92 15.872 26.112 2.048 2.048 4.608 3.584 7.168 4.096 79.36 20.48 98.816 46.08 103.424 59.392 5.12 14.848-3.584 26.624-4.096 27.648-5.12 6.656-4.096 15.872 2.56 20.992 6.656 5.12 15.872 4.096 21.504-2.56 7.168-9.216 16.896-30.72 9.216-55.296-11.264-33.28-51.712-59.904-120.32-78.336-5.632-6.656-7.168-12.288-7.168-16.896 0-6.144 4.096-12.288 10.752-17.408l0.512-0.512c2.048-1.536 4.096-3.072 6.656-4.096 0.512-0.512 1.024-0.512 1.536-1.024 3.072-1.536 6.144-2.56 9.728-3.584 5.12-1.024 14.848-3.072 29.696-3.072 26.624 0 57.344 5.12 92.16 15.36 5.632 2.56 11.264 5.12 17.408 8.192 1.536 1.024 3.584 2.048 5.12 3.072 7.168 4.096 14.848 8.704 22.016 13.824 0.512 0.512 1.024 0.512 2.048 1.024 115.712 81.408 102.912 122.368 102.912 122.368-4.096 7.168-1.024 16.384 6.144 20.48 2.048 1.024 4.608 1.536 7.168 1.536 5.632 0 10.752-3.072 13.312-8.192 4.608-9.216 20.48-54.272-75.264-133.12H670.72c-96.256 78.848-80.384 124.416-75.776 133.12 2.56 5.12 8.192 8.192 13.824 8.192 2.048 0 4.608-0.512 6.656-1.536 7.168-4.096 10.24-12.8 6.656-19.968 0-0.512-13.824-41.472 102.912-123.392 8.192-5.632 16.384-10.752 24.064-14.848 1.536-1.024 3.072-1.536 4.608-2.56 6.144-3.072 12.288-6.144 17.92-8.704 34.304-10.24 65.024-15.36 91.648-15.36 15.36 0 24.576 1.536 29.696 3.072 3.584 1.024 6.656 2.56 9.728 3.584 0.512 0.512 1.024 0.512 1.536 1.024 2.56 1.536 5.12 3.072 7.168 4.608h0.512c7.168 5.12 10.752 11.264 10.752 17.408 0 4.608-2.048 10.24-7.68 16.896-68.608 18.432-109.056 44.544-120.32 78.336-8.192 24.576 1.536 46.08 9.216 55.296 5.12 6.656 14.848 7.68 21.504 2.56 6.656-5.12 7.68-14.848 2.56-21.504 0 0-9.216-11.776-4.096-27.136 4.608-13.312 24.064-38.912 103.424-59.904 2.56-0.512 5.12-2.048 7.168-4.096 8.192-8.192 13.312-16.896 15.872-26.112 34.304-0.512 61.952-28.672 61.952-62.976V140.8c0-34.816-28.672-63.488-63.488-63.488z m1.536 697.344c-2.048-5.632-5.12-11.264-9.728-16.896l-2.048-2.048c0-0.512-0.512-0.512-0.512-0.512-2.048-2.048-4.608-4.608-7.68-6.656-1.024-0.512-1.536-1.536-2.56-2.048-2.048-1.536-4.608-3.072-7.168-4.096-1.024-0.512-2.048-1.536-3.072-2.048-0.512 0-0.512-0.512-1.024-0.512-10.24-4.608-17.408-7.68-33.792-10.752-1.024 0-2.048-0.512-3.584-0.512-1.024 0-2.048 0-3.072-0.512-6.144-1.024-12.8-1.536-19.968-1.536h-2.56c-25.088 0-53.76 5.12-83.968 16.896-9.216 3.584-17.408 7.68-27.648 12.8-10.24 5.12-20.48 11.264-30.72 18.432H362.496l-3.072-1.536c-8.192-5.632-16.384-10.752-24.576-14.848l-3.072-1.536c-7.68-4.608-20.48-9.728-27.648-12.8-1.536-0.512-2.56-1.024-4.096-1.536-17.92-6.656-35.328-11.264-52.224-13.312-1.536 0-3.072-0.512-4.096-0.512-7.68-1.024-15.36-1.536-22.528-1.536h-4.608c-6.144 0-11.776 0.512-17.408 1.024-1.536 0-3.072 0.512-4.608 0.512-1.024 0-2.048 0.512-3.584 0.512-12.288 2.048-25.6 6.144-33.792 10.752-0.512 0-1.024 0.512-1.024 0.512-1.024 0.512-2.048 1.536-3.072 2.048-2.048 1.536-4.608 2.56-6.656 4.096-1.024 0.512-2.048 1.536-3.072 2.048-2.56 2.048-5.12 4.096-7.168 6.144l-1.024 1.024c-0.512 0.512-1.536 1.024-2.048 2.048-2.048 2.048-3.072 4.608-4.608 6.656-2.048 3.072-3.584 6.656-5.12 9.728h-47.616c-18.432 0-32.768-14.848-32.768-32.768V140.8c0-17.92 14.848-32.768 32.768-32.768h873.472c17.92 0 32.768 14.848 32.768 32.768v601.088c-0.512 17.408-14.336 32.256-31.744 32.768z" /></svg>